<svg xmlns="http://www.w3.org/2000/svg" xmlns:xlink="http://www.w3.org/1999/xlink" width="1200" zoomAndPan="magnify" viewBox="0 0 900 374.999991" height="500" preserveAspectRatio="xMidYMid meet" version="1.0"><defs><g/><clipPath id="7680da850b"><path d="M 602.488281 30 L 779 30 L 779 263 L 602.488281 263 Z M 602.488281 30 " clip-rule="nonzero"/></clipPath></defs><g fill="#000000" fill-opacity="1"><g transform="translate(774.537162, 255.379515)"><g><path d="M 115.90625 -0.359375 C 105.882812 3.054688 95.984375 5.128906 86.203125 5.859375 C 76.421875 6.597656 67.613281 5.191406 59.78125 1.640625 C 51.957031 -1.898438 45.597656 -8.132812 40.703125 -17.0625 C 35.816406 -25.988281 33.375 -38.519531 33.375 -54.65625 L 33.375 -143.796875 L 7.703125 -143.796875 L 7.703125 -168.359375 L 33.375 -175.703125 L 33.375 -222.65625 L 68.953125 -222.65625 L 68.953125 -175.703125 L 116.640625 -175.703125 L 116.640625 -143.796875 L 68.953125 -143.796875 L 68.953125 -49.15625 C 68.953125 -43.28125 69.625 -38.628906 70.96875 -35.203125 C 72.320312 -31.785156 74.585938 -29.21875 77.765625 -27.5 C 80.941406 -25.789062 85.097656 -24.9375 90.234375 -24.9375 C 95.367188 -24.9375 101.601562 -25.425781 108.9375 -26.40625 Z M 115.90625 -0.359375 "/></g></g></g><g fill="#000000" fill-opacity="1"><g transform="translate(0.0000108, 255.384138)"><g><path d="M 102.390625 -36.703125 C 104.585938 -38.660156 106.539062 -40.859375 108.25 -43.296875 C 109.96875 -45.742188 110.828125 -48.5625 110.828125 -51.75 C 110.828125 -55.65625 109.421875 -58.953125 106.609375 -61.640625 C 103.796875 -64.335938 100.367188 -66.601562 96.328125 -68.4375 C 92.296875 -70.269531 88.078125 -71.675781 83.671875 -72.65625 C 79.265625 -73.632812 75.59375 -74.492188 72.65625 -75.234375 C 64.582031 -77.191406 57 -79.578125 49.90625 -82.390625 C 42.8125 -85.203125 36.632812 -88.625 31.375 -92.65625 C 26.113281 -96.695312 21.953125 -101.46875 18.890625 -106.96875 C 15.835938 -112.476562 14.3125 -119.023438 14.3125 -126.609375 C 14.3125 -133.703125 16.023438 -140.367188 19.453125 -146.609375 C 22.878906 -152.847656 27.46875 -158.351562 33.21875 -163.125 C 38.96875 -167.894531 45.691406 -171.6875 53.390625 -174.5 C 61.097656 -177.3125 69.234375 -178.71875 77.796875 -178.71875 C 85.378906 -178.71875 92.597656 -177.613281 99.453125 -175.40625 C 106.304688 -173.207031 112.484375 -170.210938 117.984375 -166.421875 C 123.492188 -162.628906 128.144531 -158.039062 131.9375 -152.65625 C 135.726562 -147.28125 138.234375 -141.289062 139.453125 -134.6875 L 107.53125 -126.984375 C 106.0625 -132.847656 102.878906 -137.738281 97.984375 -141.65625 C 93.085938 -145.570312 86.359375 -147.53125 77.796875 -147.53125 C 74.859375 -147.53125 71.800781 -147.097656 68.625 -146.234375 C 65.445312 -145.378906 62.507812 -144.097656 59.8125 -142.390625 C 57.125 -140.679688 54.863281 -138.601562 53.03125 -136.15625 C 51.195312 -133.707031 50.28125 -130.890625 50.28125 -127.703125 C 50.28125 -124.285156 51.316406 -121.351562 53.390625 -118.90625 C 55.472656 -116.457031 57.984375 -114.4375 60.921875 -112.84375 C 63.859375 -111.257812 67.035156 -109.976562 70.453125 -109 C 73.878906 -108.019531 77.0625 -107.160156 80 -106.421875 C 92.96875 -103.242188 103.734375 -99.816406 112.296875 -96.140625 C 120.859375 -92.472656 127.707031 -88.4375 132.84375 -84.03125 C 137.988281 -79.632812 141.597656 -74.804688 143.671875 -69.546875 C 145.753906 -64.285156 146.796875 -58.351562 146.796875 -51.75 C 146.796875 -43.914062 145.019531 -36.570312 141.46875 -29.71875 C 137.925781 -22.875 133.035156 -16.941406 126.796875 -11.921875 C 120.554688 -6.910156 113.09375 -3 104.40625 -0.1875 C 95.71875 2.625 86.359375 4.03125 76.328125 4.03125 C 61.160156 4.03125 47.644531 0.300781 35.78125 -7.15625 C 23.914062 -14.613281 15.90625 -24.582031 11.75 -37.0625 L 41.84375 -50.640625 C 45.75 -42.078125 50.757812 -36.265625 56.875 -33.203125 C 63 -30.148438 69.972656 -28.625 77.796875 -28.625 C 87.585938 -28.625 95.785156 -31.316406 102.390625 -36.703125 Z M 102.390625 -36.703125 "/></g></g></g><g fill="#000000" fill-opacity="1"><g transform="translate(142.390114, 255.384138)"><g><path d="M 64.21875 0 L 5.140625 -175.78125 L 42.9375 -175.78125 L 84.046875 -42.9375 L 127.34375 -175.78125 L 158.90625 -175.78125 L 202.203125 -44.03125 L 242.9375 -175.78125 L 280.75 -175.78125 L 221.65625 0 L 182.765625 0 L 146.0625 -107.53125 L 143.125 -124.40625 L 140.1875 -107.53125 L 103.859375 0 Z M 64.21875 0 "/></g></g></g><g fill="#000000" fill-opacity="1"><g transform="translate(411.757347, 255.384138)"><g><path d="M 103.859375 4.40625 C 91.128906 4.40625 79.195312 2.019531 68.0625 -2.75 C 56.9375 -7.519531 47.210938 -14.0625 38.890625 -22.375 C 30.578125 -30.695312 24.035156 -40.484375 19.265625 -51.734375 C 14.492188 -62.992188 12.109375 -74.984375 12.109375 -87.703125 C 12.109375 -100.429688 14.367188 -112.421875 18.890625 -123.671875 C 23.421875 -134.929688 29.539062 -144.71875 37.25 -153.03125 C 44.957031 -161.351562 53.945312 -167.898438 64.21875 -172.671875 C 74.5 -177.441406 85.507812 -179.828125 97.25 -179.828125 C 109.238281 -179.828125 120.304688 -177.742188 130.453125 -173.578125 C 140.609375 -169.421875 149.414062 -162.9375 156.875 -154.125 C 164.34375 -145.320312 170.15625 -134.128906 174.3125 -120.546875 C 178.476562 -106.972656 180.5625 -90.765625 180.5625 -71.921875 L 49.90625 -71.921875 C 51.625 -65.566406 54.316406 -59.632812 57.984375 -54.125 C 61.648438 -48.625 65.988281 -43.851562 71 -39.8125 C 76.019531 -35.78125 81.648438 -32.660156 87.890625 -30.453125 C 94.128906 -28.253906 100.675781 -27.15625 107.53125 -27.15625 C 116.820312 -27.15625 125.441406 -28.867188 133.390625 -32.296875 C 141.347656 -35.722656 148.140625 -40.25 153.765625 -45.875 L 175.78125 -23.859375 C 167.21875 -15.296875 156.757812 -8.441406 144.40625 -3.296875 C 132.050781 1.835938 118.535156 4.40625 103.859375 4.40625 Z M 97.25 -147.53125 C 91.625 -147.53125 86.300781 -146.425781 81.28125 -144.21875 C 76.269531 -142.019531 71.625 -138.960938 67.34375 -135.046875 C 63.0625 -131.128906 59.390625 -126.476562 56.328125 -121.09375 C 53.273438 -115.71875 51.015625 -109.847656 49.546875 -103.484375 L 142.390625 -103.484375 C 141.898438 -109.359375 140.550781 -114.984375 138.34375 -120.359375 C 136.144531 -125.742188 133.085938 -130.457031 129.171875 -134.5 C 125.265625 -138.539062 120.679688 -141.722656 115.421875 -144.046875 C 110.160156 -146.367188 104.101562 -147.53125 97.25 -147.53125 Z M 97.25 -147.53125 "/></g></g></g><g clip-path="url(#7680da850b)"><path fill="#000000" d="M 602.820312 173.132812 C 602.621094 156.0625 607.882812 140.605469 616 125.960938 C 624.671875 110.324219 628.898438 106.476562 646.261719 81.894531 C 668.570312 50.324219 678.152344 30.199219 679.4375 30.902344 C 680.992188 31.742188 668.335938 61.734375 651.136719 92.554688 C 636.160156 119.394531 634.230469 120.125 627.914062 134.21875 C 622.71875 145.835938 614.507812 172.773438 626.253906 199.476562 C 633.140625 215.148438 644.484375 224.550781 650.964844 229.132812 C 646.824219 224.796875 639.6875 216.078125 636.355469 203.027344 C 634.71875 196.628906 634.445312 190.921875 634.605469 186.53125 C 636.160156 192.503906 641.160156 208.507812 656.359375 220.316406 C 660.976562 223.902344 669.527344 230.542969 680.539062 231.164062 C 705.1875 232.582031 730.230469 203.25 734.304688 174.859375 C 736.484375 159.675781 732.230469 147.722656 724.90625 127.082031 C 717.289062 105.636719 707.734375 89.429688 700.8125 79.085938 C 712.636719 88.546875 736.625 110.542969 748.886719 147.171875 C 754.917969 165.167969 756.328125 181.363281 756.308594 193.296875 C 759.300781 180.6875 761.890625 161.570312 755.890625 140.695312 C 751.460938 125.285156 745.601562 119.609375 732.660156 97.152344 C 712.726562 62.566406 701.507812 32.148438 702.652344 31.554688 C 703.570312 31.082031 711.902344 49.675781 730.855469 76.304688 C 738.734375 87.371094 740.902344 90.027344 749.363281 101.671875 C 757.050781 112.277344 764.285156 123.171875 769.789062 135.183594 C 784.988281 168.363281 779.324219 206.621094 755.230469 233.097656 C 730.375 260.40625 692.167969 269.457031 658.675781 255.972656 C 624.976562 242.394531 602.84375 209.585938 602.820312 173.132812 " fill-opacity="1" fill-rule="nonzero"/></g><g fill="#000000" fill-opacity="1"><g transform="translate(232.055962, 348.29202)"><g><path d="M 20.765625 0.886719 C 31.277344 0.886719 37.734375 -4.117188 37.734375 -12.472656 C 37.734375 -19.5 33.113281 -23.679688 22.097656 -26.273438 C 15.320312 -27.855469 12.980469 -29.566406 12.980469 -32.289062 C 12.980469 -35.203125 15.574219 -36.972656 19.816406 -36.972656 C 24.4375 -36.972656 27.222656 -34.570312 27.222656 -30.578125 L 36.910156 -30.578125 C 36.910156 -39.507812 30.199219 -45.203125 19.691406 -45.203125 C 9.496094 -45.203125 3.164062 -40.203125 3.164062 -32.097656 C 3.164062 -24.882812 8.039062 -20.578125 18.425781 -18.359375 C 24.691406 -17.03125 27.539062 -15.195312 27.539062 -12.09375 C 27.539062 -9.117188 24.882812 -7.40625 20.703125 -7.40625 C 15.828125 -7.40625 12.664062 -9.875 12.664062 -14.117188 L 2.785156 -14.117188 C 2.785156 -4.9375 9.625 0.886719 20.765625 0.886719 Z M 20.765625 0.886719 "/></g></g></g><g fill="#000000" fill-opacity="1"><g transform="translate(296.566171, 348.29202)"><g><path d="M 15.953125 0 L 26.019531 0 L 26.019531 -34.886719 L 40.078125 -34.886719 L 40.078125 -44.320312 L 1.898438 -44.320312 L 1.898438 -34.886719 L 15.953125 -34.886719 Z M 15.953125 0 "/></g></g></g><g fill="#000000" fill-opacity="1"><g transform="translate(362.469002, 348.29202)"><g><path d="M 23.425781 0.886719 C 34.949219 0.886719 41.976562 -6.332031 41.976562 -18.234375 L 41.976562 -44.320312 L 31.910156 -44.320312 L 31.910156 -18.929688 C 31.910156 -12.15625 29.058594 -8.671875 23.425781 -8.671875 C 17.789062 -8.671875 14.941406 -12.15625 14.941406 -18.929688 L 14.941406 -44.320312 L 4.875 -44.320312 L 4.875 -18.234375 C 4.875 -6.332031 11.902344 0.886719 23.425781 0.886719 Z M 23.425781 0.886719 "/></g></g></g><g fill="#000000" fill-opacity="1"><g transform="translate(433.246014, 348.29202)"><g><path d="M 5.316406 0 L 22.855469 0 C 36.847656 0 46.21875 -8.925781 46.21875 -22.160156 C 46.21875 -35.328125 36.847656 -44.320312 22.855469 -44.320312 L 5.316406 -44.320312 Z M 15.386719 -9.242188 L 15.386719 -35.074219 L 22.539062 -35.074219 C 30.515625 -35.074219 35.898438 -29.945312 35.898438 -22.160156 C 35.898438 -14.371094 30.515625 -9.242188 22.664062 -9.242188 Z M 15.386719 -9.242188 "/></g></g></g><g fill="#000000" fill-opacity="1"><g transform="translate(506.048652, 348.29202)"><g><path d="M 5.316406 0 L 15.386719 0 L 15.386719 -44.320312 L 5.316406 -44.320312 Z M 5.316406 0 "/></g></g></g><g fill="#000000" fill-opacity="1"><g transform="translate(550.682343, 348.29202)"><g><path d="M 26.339844 0.886719 C 40.203125 0.886719 50.015625 -8.609375 50.015625 -22.160156 C 50.015625 -35.707031 40.203125 -45.203125 26.339844 -45.203125 C 12.472656 -45.203125 2.722656 -35.707031 2.722656 -22.160156 C 2.722656 -8.609375 12.472656 0.886719 26.339844 0.886719 Z M 12.980469 -22.160156 C 12.980469 -30.136719 18.488281 -35.644531 26.339844 -35.644531 C 34.25 -35.644531 39.695312 -30.136719 39.695312 -22.160156 C 39.695312 -14.183594 34.25 -8.671875 26.339844 -8.671875 C 18.488281 -8.671875 12.980469 -14.183594 12.980469 -22.160156 Z M 12.980469 -22.160156 "/></g></g></g><g fill="#000000" fill-opacity="1"><g transform="translate(627.346343, 348.29202)"><g><path d="M 20.765625 0.886719 C 31.277344 0.886719 37.734375 -4.117188 37.734375 -12.472656 C 37.734375 -19.5 33.113281 -23.679688 22.097656 -26.273438 C 15.320312 -27.855469 12.980469 -29.566406 12.980469 -32.289062 C 12.980469 -35.203125 15.574219 -36.972656 19.816406 -36.972656 C 24.4375 -36.972656 27.222656 -34.570312 27.222656 -30.578125 L 36.910156 -30.578125 C 36.910156 -39.507812 30.199219 -45.203125 19.691406 -45.203125 C 9.496094 -45.203125 3.164062 -40.203125 3.164062 -32.097656 C 3.164062 -24.882812 8.039062 -20.578125 18.425781 -18.359375 C 24.691406 -17.03125 27.539062 -15.195312 27.539062 -12.09375 C 27.539062 -9.117188 24.882812 -7.40625 20.703125 -7.40625 C 15.828125 -7.40625 12.664062 -9.875 12.664062 -14.117188 L 2.785156 -14.117188 C 2.785156 -4.9375 9.625 0.886719 20.765625 0.886719 Z M 20.765625 0.886719 "/></g></g></g></svg>